<svg width="120" height="120" viewBox="0 0 120 120" fill="none" xmlns="http://www.w3.org/2000/svg">
<g clip-path="url(#clip0_5821_30473)">
<rect width="120" height="120" rx="24" fill="#07955F"/>
<path fill-rule="evenodd" clip-rule="evenodd" d="M120 22.7491C116.162 26.5897 110.858 28.9655 104.999 28.9655C93.2871 28.9655 83.7925 19.4708 83.7925 7.7586C83.7925 5.02017 84.3115 2.40296 85.2566 0H120V22.7491ZM120 65.6301C114.424 63.9858 108.522 63.1035 102.414 63.1035C69.8758 63.1035 43.1856 88.1404 40.5572 120H59.2701C61.8273 98.4424 80.1682 81.7242 102.414 81.7242C108.673 81.7242 114.623 83.0478 120 85.4305V65.6301ZM0 84.3565C16.5061 76.5835 27.9309 59.7984 27.9309 40.3448C27.9309 23.5442 19.4097 8.73388 6.45333 0H0L0 84.3565Z" fill="#10A46B"/>
<path fill-rule="evenodd" clip-rule="evenodd" d="M41.8247 27.8871C42.4902 27.6823 42.8989 27.558 43.1969 27.4953C43.2163 27.4912 43.2343 27.4876 43.2509 27.4845C43.2478 27.5011 43.2442 27.519 43.2401 27.5383C43.1774 27.8364 43.053 28.2452 42.8482 28.9107L37.2642 47.0589C37.006 47.8981 36.8383 48.4387 36.6873 48.8101C36.6752 48.8398 36.6639 48.8668 36.6532 48.8915C36.6385 48.8689 36.6227 48.8439 36.6059 48.8165C36.3958 48.4751 36.1414 47.9694 35.7488 47.1843L32.3264 40.3393L38.351 34.3147C38.8841 33.7816 38.8841 32.9173 38.351 32.3842C37.8179 31.8511 36.9536 31.8511 36.4205 32.3842L30.3958 38.4088L23.551 34.9864C22.7656 34.5937 22.2599 34.3395 21.9183 34.1295C21.891 34.1127 21.8661 34.0969 21.8436 34.0823C21.8683 34.0716 21.8954 34.0602 21.9252 34.048C22.2967 33.897 22.8374 33.7293 23.6766 33.4711L41.8247 27.8871ZM44.244 24.8692C43.6546 24.6528 43.0701 24.7321 42.6352 24.8236C42.1998 24.9151 41.6697 25.0782 41.0793 25.26L22.8737 30.8617L22.8127 30.8804C22.0509 31.1148 21.3933 31.3171 20.8969 31.5189C20.4339 31.7072 19.7911 32.0113 19.4073 32.6256C18.9396 33.374 18.8623 34.3029 19.2008 35.1187C19.4784 35.7877 20.0626 36.1934 20.4883 36.4551C20.9445 36.7357 21.5598 37.0433 22.2725 37.3996L29.4037 40.9652C29.5336 41.0302 29.5976 41.0624 29.6436 41.0875L29.6461 41.0889L29.6481 41.0926C29.6731 41.1382 29.7053 41.2021 29.77 41.3315L33.3324 48.4563L33.3325 48.4564C33.6902 49.172 33.999 49.7895 34.2806 50.2473C34.5427 50.6732 34.9484 51.2569 35.6172 51.5344C36.4327 51.8728 37.3611 51.7958 38.1098 51.328C38.7241 50.9442 39.0281 50.3014 39.2164 49.8384C39.4182 49.3421 39.6205 48.6845 39.8549 47.9227L39.8549 47.9227L45.4758 29.6548L45.4758 29.6547C45.6573 29.0649 45.8203 28.5353 45.9118 28.1003C46.0033 27.6655 46.0828 27.0808 45.8664 26.4912C45.5899 25.7381 44.9961 25.1453 44.244 24.8692ZM49.7873 38.2807C49.5017 38.2807 49.2701 38.5123 49.2701 38.7979V60.8324C49.2701 61.1181 49.5017 61.3496 49.7873 61.3496H53.5425C53.8282 61.3496 54.0598 61.1181 54.0598 60.8324V47.9772L59.1456 56.8382C59.2379 56.9988 59.409 57.0979 59.5942 57.0979H62.046C62.2312 57.0979 62.4023 56.9988 62.4946 56.8382L67.6115 47.9231V60.8324C67.6115 61.1181 67.8431 61.3496 68.1287 61.3496H71.8839C72.1696 61.3496 72.4011 61.1181 72.4011 60.8324V38.7979C72.4011 38.5123 72.1696 38.2807 71.8839 38.2807H68.1287C67.9402 38.2807 67.7666 38.3833 67.6756 38.5485L60.8356 50.9715L53.9956 38.5485C53.9047 38.3833 53.7311 38.2807 53.5425 38.2807H49.7873ZM76.8198 38.3117C75.2307 38.3117 73.975 39.5985 73.975 41.1255C73.975 42.6791 75.2262 43.9703 76.8198 43.9703C78.4045 43.9703 79.6957 42.688 79.6957 41.1255C79.6957 39.5896 78.4 38.3117 76.8198 38.3117ZM97.7237 41.1255C97.7237 39.5985 98.9794 38.3117 100.568 38.3117C102.149 38.3117 103.444 39.5896 103.444 41.1255C103.444 42.688 102.153 43.9703 100.568 43.9703C98.9749 43.9703 97.7237 42.6791 97.7237 41.1255ZM90.3652 44.9531C88.6501 44.9531 87.0307 45.5158 85.7617 46.5801V45.6876C85.7617 45.4019 85.5301 45.1703 85.2445 45.1703H81.7686C81.483 45.1703 81.2514 45.4019 81.2514 45.6876V60.8324C81.2514 61.1181 81.483 61.3496 81.7686 61.3496H85.2445C85.5301 61.3496 85.7617 61.1181 85.7617 60.8324V53.229C85.7617 51.8246 86.1272 50.8028 86.7052 50.1394C87.2758 49.4845 88.1025 49.1221 89.1548 49.1221C90.1145 49.1221 90.7609 49.3569 91.1868 49.8533C91.63 50.3697 91.9272 51.2738 91.9272 52.8255V60.8324C91.9272 61.1181 92.1588 61.3496 92.4445 61.3496H95.9203C96.206 61.3496 96.4376 61.1181 96.4376 60.8324V51.9255C96.4376 49.5669 95.86 47.8066 94.7662 46.6343C93.6671 45.4563 92.1227 44.9531 90.3652 44.9531ZM74.5647 45.6876C74.5647 45.4019 74.7962 45.1703 75.0819 45.1703H78.5578C78.8434 45.1703 79.075 45.4019 79.075 45.6876V60.8324C79.075 61.1181 78.8434 61.3496 78.5578 61.3496H75.0819C74.7962 61.3496 74.5647 61.1181 74.5647 60.8324V45.6876ZM98.8306 45.1703C98.5449 45.1703 98.3133 45.4019 98.3133 45.6876V60.8324C98.3133 61.1181 98.5449 61.3496 98.8306 61.3496H102.306C102.592 61.3496 102.824 61.1181 102.824 60.8324V45.6876C102.824 45.4019 102.592 45.1703 102.306 45.1703H98.8306ZM23.8044 56.8141C23.8044 56.5284 24.036 56.2968 24.3216 56.2968H34.9561C38.5732 56.2968 41.2371 57.3418 42.9941 59.1655C44.7473 60.9852 45.5285 63.5089 45.5285 66.3313C45.5285 69.6428 44.4046 72.1485 42.3988 73.8153C40.4081 75.4696 37.6163 76.2416 34.3768 76.2416H29.8458V86.1934C29.8458 86.479 29.6142 86.7106 29.3285 86.7106H24.3216C24.036 86.7106 23.8044 86.479 23.8044 86.1934V56.8141ZM29.8458 61.8003V70.6968H33.8803C35.8466 70.6968 37.1966 70.2005 38.0499 69.4329C38.8962 68.6717 39.3216 67.5828 39.3216 66.2485C39.3216 64.8111 38.8654 63.7218 38.0494 62.9861C37.226 62.2437 35.9684 61.8003 34.2527 61.8003H29.8458ZM55.4024 65.1934C49.5401 65.1934 45.161 69.8439 45.161 76.1796C45.161 79.4215 46.2471 82.1417 48.0941 84.0544C49.9413 85.9674 52.5203 87.0416 55.4437 87.0416C57.907 87.0416 59.9207 86.2523 61.423 84.7859V86.1934C61.423 86.479 61.6546 86.7106 61.9403 86.7106H66.3679C66.6535 86.7106 66.8851 86.479 66.8851 86.1934V66.0003C66.8851 65.7146 66.6535 65.483 66.3679 65.483H61.7334C61.4477 65.483 61.2161 65.7146 61.2161 66.0003V67.2672C59.6939 65.8927 57.6525 65.1934 55.4024 65.1934ZM50.9127 76.221C50.9127 74.3923 51.5138 72.9426 52.4561 71.9536C53.3984 70.9647 54.709 70.4072 56.1886 70.4072C59.1654 70.4072 61.423 72.8563 61.423 76.221C61.423 79.5863 59.0382 81.7865 56.1886 81.7865C54.6036 81.7865 53.2944 81.207 52.3796 80.2411C51.4627 79.273 50.9127 77.8849 50.9127 76.221ZM68.3076 65.7165C68.4032 65.5708 68.5658 65.483 68.7401 65.483H73.7056C73.9155 65.483 74.1046 65.6099 74.1842 65.8041L79.2765 78.2309L84.0224 65.8156C84.099 65.6153 84.2912 65.483 84.5056 65.483H89.2642C89.4351 65.483 89.595 65.5674 89.6913 65.7086C89.7877 65.8497 89.8082 66.0293 89.746 66.1885L78.6563 94.5747C78.5788 94.7731 78.3876 94.9037 78.1746 94.9037H73.3746C73.2036 94.9037 73.0437 94.8193 72.9474 94.6781C72.851 94.5369 72.8306 94.3573 72.8928 94.1981L76.4565 85.0863L68.2656 66.2061C68.1962 66.0462 68.212 65.8622 68.3076 65.7165Z" fill="white"/>
</g>
<defs>
<clipPath id="clip0_5821_30473">
<rect width="120" height="120" rx="24" fill="white"/>
</clipPath>
</defs>
</svg>
